<svg width="20" height="21" viewBox="0 0 20 21" fill="none" xmlns="http://www.w3.org/2000/svg">
<g clip-path="url(#clip0)">
<path d="M5.69334 10.4712C5.83699 10.585 5.91087 10.7678 5.87393 10.9466L5.70155 11.8324C5.66051 12.0518 5.78363 12.2631 5.98885 12.3403L6.54703 12.5475L7.10521 12.7547C7.31042 12.8319 7.54437 12.7466 7.65929 12.5556L8.10255 11.7958C8.19695 11.6373 8.37343 11.5439 8.55812 11.552C8.8208 11.5642 9.08757 11.5561 9.35025 11.5276C9.53494 11.5073 9.71142 11.5845 9.81813 11.7349L10.3312 12.4825C10.4584 12.6653 10.7006 12.7303 10.9017 12.6409L11.4434 12.3931L11.9852 12.1452C12.1904 12.0518 12.2971 11.8283 12.2397 11.613L12.0098 10.7678C11.9606 10.5891 12.0221 10.4022 12.1576 10.2803C12.3546 10.1015 12.5393 9.91053 12.7034 9.70738C12.8184 9.56517 13.0031 9.4961 13.1795 9.5286L14.0743 9.69925C14.2959 9.73988 14.5093 9.61799 14.5873 9.41484L14.7966 8.86226L15.0059 8.30968C15.0839 8.10653 14.9977 7.87493 14.8048 7.76116L14.0332 7.33048C13.8691 7.24109 13.7747 7.06232 13.7829 6.87541C13.7952 6.61538 13.787 6.35534 13.7582 6.09124C13.7377 5.9084 13.8157 5.73369 13.9676 5.62805L14.7227 5.12017C14.9074 4.99421 14.9731 4.75449 14.8828 4.5554L14.6324 4.01907L14.3821 3.48275C14.2877 3.27959 14.062 3.17395 13.8444 3.23084L12.9907 3.45837C12.8101 3.50712 12.6172 3.44618 12.4941 3.30803C12.3094 3.10082 12.1083 2.91798 11.8949 2.75139C11.7471 2.63763 11.6733 2.45479 11.7102 2.27195L11.8785 1.39839C11.9195 1.17898 11.7964 0.967702 11.5912 0.890504L11.033 0.683287L10.4748 0.47607C10.2696 0.398871 10.0357 0.484196 9.92074 0.67516L9.46927 1.44714C9.37487 1.6056 9.20249 1.69499 9.0178 1.68687C8.75102 1.67468 8.48425 1.6828 8.21747 1.71531C8.03278 1.73562 7.85219 1.65842 7.74958 1.50403L7.24476 0.768611C7.12163 0.589836 6.88358 0.520764 6.68247 0.602025L6.14071 0.849873L5.61125 1.10178C5.40604 1.19523 5.29933 1.4187 5.36089 1.63405L5.59484 2.49136C5.64409 2.66607 5.58663 2.85703 5.44708 2.97892C5.25008 3.1577 5.06539 3.35273 4.90121 3.55994C4.7863 3.70215 4.6016 3.77529 4.42101 3.73872L3.53449 3.57213C3.31286 3.5315 3.09944 3.6534 3.02146 3.85655L2.81214 4.40913L2.60282 4.96171C2.52484 5.16486 2.61103 5.39645 2.80393 5.51022L3.58374 5.95716C3.74381 6.05061 3.8341 6.22126 3.8259 6.4041C3.81358 6.6682 3.82179 6.9323 3.85463 7.1964C3.87515 7.37924 3.79717 7.55801 3.6412 7.65959L2.90243 8.15122C2.71774 8.27718 2.65207 8.5169 2.74237 8.71599L2.99273 9.25231L3.24309 9.78864C3.33749 9.99179 3.56322 10.0974 3.78075 10.0406L4.64675 9.80896C4.82734 9.7602 5.01613 9.82114 5.13926 9.95522C5.31164 10.1421 5.49633 10.3168 5.69334 10.4712ZM7.6757 4.26692C8.98907 3.64933 10.561 4.20191 11.1849 5.50209C11.8087 6.80228 11.2505 8.35844 9.93716 8.97602C8.62379 9.59361 7.05185 9.04103 6.428 7.74085C5.80415 6.44066 6.36234 4.88451 7.6757 4.26692Z" fill="#74A1FF"/>
<path d="M17.2968 13.3764L16.952 13.2667C16.8781 13.2424 16.8289 13.1814 16.8166 13.1083C16.8001 13.0026 16.7714 12.897 16.7386 12.7954C16.714 12.7263 16.7304 12.6451 16.7837 12.5923L17.0423 12.3241C17.1039 12.2591 17.1121 12.1575 17.0587 12.0844L16.911 11.8894L16.7632 11.6943C16.7098 11.6212 16.6113 11.6009 16.5293 11.6415L16.2091 11.8081C16.1394 11.8447 16.0573 11.8365 15.9957 11.7918C15.9095 11.7309 15.8151 11.674 15.7166 11.6253C15.6509 11.5927 15.6058 11.5237 15.6017 11.4505L15.5935 11.0808C15.5894 10.9914 15.5237 10.9142 15.4334 10.902L15.1913 10.8655L14.9491 10.8289C14.8588 10.8167 14.7726 10.8695 14.7439 10.9548L14.6331 11.2961C14.6085 11.3693 14.5469 11.4221 14.4689 11.4343C14.3581 11.4505 14.2473 11.479 14.1406 11.5156C14.0667 11.5399 13.9887 11.5237 13.9313 11.4709L13.6645 11.2189C13.5988 11.158 13.4962 11.1499 13.4223 11.2027L13.2253 11.349L13.0283 11.4952C12.9544 11.5481 12.9339 11.6456 12.975 11.7268L13.1432 12.0519C13.1761 12.1169 13.172 12.1981 13.1268 12.2591C13.0653 12.3485 13.0078 12.4419 12.9585 12.5394C12.9257 12.6085 12.8559 12.6491 12.7821 12.6532L12.4127 12.6613C12.3224 12.6654 12.2444 12.7304 12.228 12.8157L12.191 13.0555L12.1541 13.2952C12.1418 13.3846 12.1951 13.4699 12.2813 13.4983L12.6343 13.608C12.7082 13.6324 12.7574 13.6934 12.7697 13.7665C12.7862 13.8762 12.8149 13.9778 12.8518 14.0834C12.8765 14.1525 12.86 14.2337 12.8067 14.2866L12.5522 14.5507C12.4907 14.6157 12.4824 14.7173 12.5358 14.7904L12.6836 14.9854L12.8313 15.1804C12.8847 15.2536 12.9832 15.2739 13.0653 15.2333L13.3936 15.0667C13.4593 15.0342 13.5413 15.0382 13.6029 15.0829C13.6932 15.1439 13.7876 15.2008 13.8861 15.2495C13.9559 15.282 13.9969 15.3511 14.001 15.4242L14.0092 15.7899C14.0133 15.8793 14.079 15.9565 14.1693 15.9687L14.4115 16.0053L14.6536 16.0418C14.7439 16.054 14.8301 16.0012 14.8588 15.9159L14.9696 15.5705C14.9943 15.4974 15.0558 15.4486 15.1297 15.4324C15.2323 15.4161 15.3349 15.3877 15.4334 15.3552C15.5073 15.3308 15.5853 15.347 15.6386 15.3999L15.9095 15.6558C15.9752 15.7168 16.0778 15.7249 16.1517 15.6721L16.3487 15.5258L16.5457 15.3795C16.6196 15.3267 16.6401 15.2292 16.599 15.1479L16.4308 14.827C16.3938 14.7579 16.402 14.6807 16.4472 14.6157C16.5087 14.5304 16.5662 14.4369 16.6154 14.3394C16.6483 14.2744 16.7181 14.2297 16.7919 14.2256L17.1654 14.2175C17.2557 14.2134 17.3337 14.1484 17.346 14.059L17.3829 13.8193L17.4199 13.5796C17.4404 13.4902 17.3829 13.4049 17.2968 13.3764ZM15.8644 13.5755C15.7864 14.1606 15.2446 14.575 14.6536 14.4978C14.0626 14.4207 13.644 13.8843 13.7219 13.2992C13.7999 12.7142 14.3417 12.2997 14.9327 12.3769C15.5237 12.4541 15.9423 12.9904 15.8644 13.5755Z" fill="#74A1FF"/>
<path d="M12.5883 15.8833L12.0671 15.7939C11.9562 15.7736 11.8701 15.6964 11.8372 15.5908C11.7921 15.4404 11.7305 15.2941 11.6607 15.156C11.6115 15.0585 11.6197 14.9447 11.6854 14.8553L12.0014 14.4206C12.0794 14.3149 12.0671 14.1687 11.9727 14.0752L11.7223 13.8274L11.4719 13.5795C11.3775 13.4861 11.2298 13.4739 11.1231 13.547L10.6921 13.8518C10.6018 13.9168 10.4828 13.9208 10.3802 13.8721C10.2407 13.7989 10.097 13.738 9.94515 13.6892C9.84254 13.6527 9.76456 13.5673 9.74404 13.4617L9.65374 12.9294C9.63322 12.7994 9.5183 12.7019 9.38697 12.7019H9.02989H8.67282C8.53738 12.7019 8.42657 12.7954 8.40194 12.9254L8.31165 13.4373C8.29112 13.547 8.21314 13.6323 8.10233 13.6649C7.94226 13.7136 7.7904 13.7746 7.64675 13.8477C7.54825 13.8964 7.42923 13.8924 7.33893 13.8274L6.90388 13.5186C6.79717 13.4414 6.64941 13.4536 6.55502 13.547L6.30465 13.7949L6.05429 14.0427C5.9599 14.1362 5.94758 14.2824 6.02146 14.3881L6.32928 14.8228C6.39084 14.9122 6.39905 15.03 6.3498 15.1235C6.27593 15.2616 6.21436 15.4079 6.16511 15.5582C6.13228 15.6639 6.04198 15.737 5.93527 15.7573L5.40582 15.8427C5.27859 15.863 5.18008 15.9767 5.17188 16.1027V16.4562V16.8097C5.17188 16.9438 5.26627 17.0535 5.39761 17.0778L5.92706 17.1672C6.03377 17.1875 6.12407 17.2647 6.1569 17.3663C6.20615 17.5166 6.26361 17.6629 6.33749 17.8051C6.38674 17.9026 6.37853 18.0205 6.31697 18.1058L6.00504 18.5365C5.92706 18.6421 5.93937 18.7884 6.03377 18.8818L6.28413 19.1297L6.53449 19.3775C6.62889 19.471 6.77665 19.4832 6.88336 19.41L7.32252 19.1053C7.41281 19.0444 7.53183 19.0362 7.62623 19.085C7.76578 19.1581 7.91353 19.2191 8.06539 19.2678C8.1721 19.3003 8.24598 19.3897 8.2665 19.4954L8.35269 20.0195C8.37321 20.1495 8.48813 20.247 8.61947 20.247H8.97654H9.33361C9.46905 20.247 9.57987 20.1536 9.60449 20.0236L9.69479 19.5035C9.71531 19.3938 9.79329 19.3085 9.9 19.276C10.0437 19.2313 10.1832 19.1744 10.3186 19.1053C10.4171 19.0566 10.5362 19.0647 10.6224 19.1256L11.0615 19.4385C11.1682 19.5157 11.316 19.5035 11.4104 19.41L11.6607 19.1622L11.9111 18.9143C12.0055 18.8209 12.0178 18.6746 11.9439 18.569L11.6402 18.1424C11.5745 18.053 11.5704 17.9351 11.6238 17.8376C11.6977 17.6995 11.7592 17.5573 11.8085 17.4069C11.8454 17.3054 11.9316 17.2282 12.0383 17.2079L12.576 17.1185C12.7073 17.0982 12.8058 16.9844 12.8058 16.8544V16.5009V16.1474C12.8181 16.0174 12.7196 15.9036 12.5883 15.8833ZM9.01348 18.0205C8.14747 18.0286 7.43744 17.3379 7.42923 16.4806C7.42102 15.6233 8.11874 14.9203 8.98475 14.9122C9.85075 14.9041 10.5608 15.5948 10.569 16.4521C10.5772 17.3094 9.87948 18.0123 9.01348 18.0205Z" fill="#74A1FF"/>
</g>
<defs>
<clipPath id="clip0">
<rect width="20" height="19.7992" fill="white" transform="translate(0 0.447754)"/>
</clipPath>
</defs>
</svg>
