<svg width="10" height="8" viewBox="0 0 10 8" fill="none" xmlns="http://www.w3.org/2000/svg">
<path d="M0.369924 7.64872C0.332223 7.61375 0.302115 7.57141 0.281471 7.52432C0.260828 7.47722 0.250089 7.42639 0.249924 7.37497C0.250676 7.3343 0.256984 7.29393 0.268675 7.25497L1.35617 3.99997L0.249925 0.744971C0.22626 0.676601 0.222878 0.602846 0.240188 0.532597C0.257497 0.462349 0.294759 0.398607 0.347479 0.349058C0.400198 0.29951 0.466125 0.266269 0.537312 0.253346C0.608498 0.240422 0.681902 0.248366 0.748674 0.276221L8.99867 3.65122C9.06862 3.67886 9.12864 3.7269 9.17093 3.7891C9.21322 3.85129 9.23584 3.92476 9.23584 3.99997C9.23584 4.07518 9.21322 4.14865 9.17093 4.21085C9.12864 4.27304 9.06862 4.32108 8.99867 4.34872L0.748674 7.72372C0.684676 7.74674 0.615622 7.75192 0.548905 7.73871C0.482188 7.7255 0.42032 7.69439 0.369924 7.64872Z" fill="#BFBFBF"/>
</svg>
