<svg width="80" height="80" viewBox="0 0 80 80" fill="none" xmlns="http://www.w3.org/2000/svg">
<mask id="mask0" mask-type="alpha" maskUnits="userSpaceOnUse" x="0" y="0" width="80" height="80">
<circle cx="40" cy="40" r="40" fill="#C4C4C4"/>
</mask>
<g mask="url(#mask0)">
<rect x="-20" width="120" height="80" fill="#A2BFFD"/>
<path d="M71.9997 77.2137V77.7143C71.9997 78.976 70.9757 80 69.714 80H10.286C9.02429 80 8.0003 78.976 8.0003 77.7143V77.2137C7.99344 69.5017 7.98201 56.5943 23.2207 50.2697C30.4001 47.2914 29.3692 43.7943 27.6618 38.0046C26.9258 35.5086 26.1624 32.928 26.247 30.3086C26.5807 19.76 33.5703 16 40 16C46.4297 16 53.4193 19.76 53.753 30.3086C53.8376 32.928 53.0742 35.5086 52.3382 38.0046C50.6285 43.7966 49.5999 47.2914 56.7793 50.2697C72.018 56.5943 72.0066 69.5017 71.9997 77.2137Z" fill="#74A1FF"/>
</g>
</svg>
