<svg width="368" height="70" viewBox="0 0 368 70" fill="none" xmlns="http://www.w3.org/2000/svg">
<path d="M72.816 36.856V49H68.496V18.952H78.336C81.312 18.952 82.8 20.36 82.8 23.176V32.584C82.8 35.016 81.728 36.408 79.584 36.76L84.336 49H79.68L75.168 36.856H72.816ZM72.816 22.456V33.4H77.04C77.616 33.4 78 33.32 78.192 33.16C78.384 32.968 78.48 32.584 78.48 32.008V23.848C78.48 23.272 78.384 22.904 78.192 22.744C78 22.552 77.616 22.456 77.04 22.456H72.816ZM98.5673 49L97.3672 42.04H91.0312L89.9273 49H85.6073L90.9353 18.952H97.2233L102.935 49H98.5673ZM91.5593 38.536H96.7913L94.0553 22.696L91.5593 38.536ZM116.7 18.952H120.684V49H116.316L109.98 27.304V49H105.996V18.952H110.556L116.7 40.024V18.952ZM141.14 18.952L134.804 34.024L141.092 49H136.388L130.292 34.024L136.484 18.952H141.14ZM125.684 49V18.952H130.004V49H125.684ZM144.489 18.952H148.809V49H144.489V18.952ZM164.888 18.952H168.872V49H164.504L158.168 27.304V49H154.184V18.952H158.743L164.888 40.024V18.952ZM187.695 27.736H183.327V23.752C183.327 23.176 183.231 22.808 183.039 22.648C182.847 22.456 182.463 22.36 181.887 22.36H179.439C178.863 22.36 178.479 22.456 178.287 22.648C178.095 22.808 177.999 23.176 177.999 23.752V44.248C177.999 44.824 178.095 45.208 178.287 45.4C178.479 45.56 178.863 45.64 179.439 45.64H181.887C182.463 45.64 182.847 45.56 183.039 45.4C183.231 45.208 183.327 44.824 183.327 44.248V36.904H180.927V33.544H187.695V44.776C187.695 47.624 186.207 49.048 183.231 49.048H178.095C175.119 49.048 173.631 47.624 173.631 44.776V23.176C173.631 20.36 175.119 18.952 178.095 18.952H183.231C186.207 18.952 187.695 20.36 187.695 23.176V27.736ZM195.991 49H192.199V18.952H196.951L202.087 37.576L207.223 18.952H211.975V49H208.183V27.016L204.055 42.472H200.119L195.991 27.064V49ZM225.445 49H221.077V39.496L214.645 18.952H219.061L223.237 35.512L227.173 18.952H231.589L225.445 39.496V49ZM232.469 39.112H236.837V44.104C236.837 44.68 236.933 45.064 237.125 45.256C237.317 45.416 237.701 45.496 238.277 45.496H239.669C240.245 45.496 240.629 45.416 240.821 45.256C241.013 45.064 241.109 44.68 241.109 44.104V18.952H245.477V44.776C245.477 47.592 243.989 49 241.013 49H236.933C233.957 49 232.469 47.592 232.469 44.776V39.112ZM261.028 18.952H265.012V49H260.644L254.308 27.304V49H250.324V18.952H254.884L261.028 40.024V18.952ZM270.396 18.952H274.716V49H270.396V18.952ZM279.13 49V43.096H283.978V49H279.13ZM288.012 18.952H297.852C300.828 18.952 302.316 20.36 302.316 23.176V33.16C302.316 35.976 300.828 37.384 297.852 37.384H292.332V49H288.012V18.952ZM297.996 32.488V23.848C297.996 23.272 297.9 22.904 297.708 22.744C297.516 22.552 297.132 22.456 296.556 22.456H292.332V33.928H296.556C297.132 33.928 297.516 33.832 297.708 33.64C297.9 33.448 297.996 33.064 297.996 32.488ZM310.472 45.496H317.912V49H306.152V18.952H310.472V45.496Z" fill="#F9F9F9"/>
<path d="M59.7173 27.2277L53.6392 12.5609C53.362 11.8893 52.9539 11.2843 52.449 10.7778C51.453 9.78226 50.078 9.16626 48.5605 9.16626H28.9695V12.8331H48.56C49.2183 12.8331 49.6534 13.1697 49.8558 13.3705C50.0241 13.5426 50.1605 13.7412 50.2518 13.965L54.341 23.8331H21.6364C18.5998 23.8331 16.1364 26.2933 16.1364 29.3298L16.138 29.3331L16.1364 42.1668H19.8032V47.6668C19.8032 48.6766 20.6282 49.4999 21.6364 49.4999H25.3032C26.3108 49.4999 27.1364 48.6766 27.1364 47.6668V42.1668H49.1364V47.6668C49.1364 48.6766 49.9619 49.4999 50.9695 49.4999H54.6364C55.6445 49.4999 56.4695 48.6766 56.4695 47.6668V42.1668H60.1364V29.3331C60.1364 28.5884 59.9862 27.8762 59.7173 27.2277ZM56.4695 38.4999H19.8032V29.3331C19.8032 29.0917 19.9534 28.6066 19.9534 28.6066C20.2361 27.9548 20.8807 27.4983 21.6364 27.4983V27.5H54.6364V27.4983C55.3921 27.4983 56.0367 27.9548 56.3194 28.6066C56.3194 28.6066 56.4695 29.0917 56.4695 29.3331V38.4999Z" fill="#F9F9F9"/>
<path d="M27.5945 32.9999C27.5945 34.2676 26.5671 35.2917 25.3032 35.2917C24.0388 35.2917 23.0114 34.2676 23.0114 32.9999C23.0114 31.7321 24.0388 30.708 25.3032 30.708C26.5671 30.708 27.5945 31.7321 27.5945 32.9999Z" fill="#F9F9F9"/>
<path d="M42.6364 32H33.6364V34H42.6364V32Z" fill="#F9F9F9"/>
<path d="M48.6783 32.9999C48.6783 34.2676 49.7057 35.2917 50.9696 35.2917C52.234 35.2917 53.2614 34.2676 53.2614 32.9999C53.2614 31.7321 52.234 30.708 50.9696 30.708C49.7057 30.708 48.6783 31.7321 48.6783 32.9999Z" fill="#F9F9F9"/>
<path d="M20 8L22.7705 13.3907C22.9181 13.7833 23 14.2153 23 14.6667C23 16.508 21.6572 18 20 18C18.3428 18 17 16.508 17 14.6667C17 14.2153 17.0819 13.7833 17.2295 13.3907L20 8Z" fill="#F9F9F9"/>
<path d="M-2.86111e-07 12.5454L4.24012 11.0758L4.24012 6.32027L6.86066 10.1676L11.1008 8.69804L8.48025 12.5454L11.1008 16.3927L6.86066 14.9231L4.24012 18.7705L4.24012 14.0149L-2.86111e-07 12.5454Z" fill="#FFF50E"/>
<path d="M-2.68229e-07 45.2272L4.24012 43.8495L4.24012 39.3911L6.86066 42.998L11.1008 41.6203L8.48025 45.2272L11.1008 48.834L6.86066 47.4563L4.24012 51.0632L4.24012 46.6049L-2.68229e-07 45.2272Z" fill="#FFF50E"/>
<path d="M-2.86111e-07 29.5454L4.24012 28.0758L4.24012 23.3203L6.86066 27.1676L11.1008 25.698L8.48025 29.5454L11.1008 33.3927L6.86066 31.9231L4.24012 35.7705L4.24012 31.0149L-2.86111e-07 29.5454Z" fill="#FFF50E"/>
</svg>
