<svg width="54" height="45" viewBox="0 0 54 45" fill="none" xmlns="http://www.w3.org/2000/svg">
<path d="M52.7395 20.9074L47.3716 6.24059C47.1268 5.56899 46.7663 4.96399 46.3204 4.45749C45.4408 3.46195 44.2265 2.84595 42.8863 2.84595H25.5845V6.51279H42.8859C43.4672 6.51279 43.8515 6.84939 44.0302 7.05019C44.1789 7.22229 44.2993 7.42089 44.38 7.64469L47.9914 17.5128H19.1082C16.4264 17.5128 14.2509 19.973 14.2509 23.0095L14.2523 23.0128L14.2509 35.8465H17.4892V41.3465C17.4892 42.3563 18.2178 43.1796 19.1082 43.1796H22.3466C23.2364 43.1796 23.9656 42.3563 23.9656 41.3465V35.8465H43.3949V41.3465C43.3949 42.3563 44.1239 43.1796 45.0138 43.1796H48.2522C49.1425 43.1796 49.8711 42.3563 49.8711 41.3465V35.8465H53.1096V23.0128C53.1096 22.2681 52.9769 21.5559 52.7395 20.9074ZM49.8711 32.1796H17.4892V23.0128C17.4892 22.7714 17.6219 22.2863 17.6219 22.2863C17.8715 21.6345 18.4408 21.178 19.1082 21.178V21.1797H48.2522V21.178C48.9196 21.178 49.4889 21.6345 49.7386 22.2863C49.7386 22.2863 49.8711 22.7714 49.8711 23.0128V32.1796Z" fill="#F9F9F9"/>
<path d="M24.3702 26.6796C24.3702 27.9473 23.4628 28.9714 22.3466 28.9714C21.23 28.9714 20.3226 27.9473 20.3226 26.6796C20.3226 25.4118 21.23 24.3877 22.3466 24.3877C23.4628 24.3877 24.3702 25.4118 24.3702 26.6796Z" fill="#F9F9F9"/>
<path d="M37.6544 25.6797H29.7061V27.6797H37.6544V25.6797Z" fill="#F9F9F9"/>
<path d="M42.9903 26.6796C42.9903 27.9473 43.8977 28.9714 45.0139 28.9714C46.1306 28.9714 47.0379 27.9473 47.0379 26.6796C47.0379 25.4118 46.1306 24.3877 45.0139 24.3877C43.8977 24.3877 42.9903 25.4118 42.9903 26.6796Z" fill="#F9F9F9"/>
<path d="M17.663 1.67969L20.1098 7.07039C20.2402 7.46299 20.3125 7.89499 20.3125 8.34639C20.3125 10.1877 19.1266 11.6797 17.663 11.6797C16.1995 11.6797 15.0136 10.1877 15.0136 8.34639C15.0136 7.89499 15.0859 7.46299 15.2163 7.07039L17.663 1.67969Z" fill="#F9F9F9"/>
<path d="M0 6.22513L3.74467 4.75553V0L6.05901 3.84733L9.8037 2.37777L7.48935 6.22513L9.8037 10.0724L6.05901 8.60283L3.74467 12.4502V7.69463L0 6.22513Z" fill="#FFF50E"/>
<path d="M0 38.9069L3.74467 37.5292V33.0708L6.05901 36.6777L9.8037 35.3L7.48935 38.9069L9.8037 42.5137L6.05901 41.136L3.74467 44.7429V40.2846L0 38.9069Z" fill="#FFF50E"/>
<path d="M0 23.2251L3.74467 21.7555V17L6.05901 20.8473L9.8037 19.3777L7.48935 23.2251L9.8037 27.0724L6.05901 25.6028L3.74467 29.4502V24.6946L0 23.2251Z" fill="#FFF50E"/>
</svg>
